# File created by Blade
# Date/Time:  Thu Sep 25 18:48:06 2014
# Frame Rate: 120.000 fps
#------------------------------------------------------
:FULLY-SPECIFIED
:DEGREES
1328
root 1.487463 32.934876 2.636396 10.867981 3.453353 0.785615
Spine -18.545575 8.087814 -2.454270
Head 15.493581 -14.470233 8.087602
LeftShoulder -16.762029 3.685395 31.032602
LeftArm 164.369547 -29.606612 -112.227990
LeftForeArm -26.962480 -0.000000 154.888204
LeftHand -4.825900 -0.000000 -2.521635
LeftHandThumb1 -26.253704 0.000000 33.147579
RightShoulder -7.733095 6.389803 -11.632139
RightArm -136.478847 -71.717925 238.820788
RightForeArm -25.421929 -0.000000 103.301011
RightHand 61.379506 0.000000 2.651107
RightHandThumb1 -24.326973 -0.000000 -32.862282
LeftUpLeg -2.658332 6.244496 2.262397
LeftLeg -2.752051 -0.000000 0.000000
LeftFoot -8.237289 3.264448 -13.498634
LeftToeBase 10.781256 -0.000000 -0.000000
RightUpLeg -1.934307 -14.736482 -6.241806
RightLeg -0.940612 -0.000000 0.000000
RightFoot -5.430040 -2.481596 7.363756
RightToeBase 0.817626 -0.000000 -0.000000
1329
root 1.480459 32.941796 2.613418 10.841956 3.512623 0.764490
Spine -18.294127 8.063402 -2.406956
Head 15.502276 -14.764184 7.747559
LeftShoulder -16.776919 3.550452 31.129884
LeftArm 164.289113 -29.619648 -112.166983
LeftForeArm -26.965900 -0.000000 154.850223
LeftHand -4.832070 0.000000 -2.467991
LeftHandThumb1 -26.253704 0.000000 33.147579
RightShoulder -7.731277 6.458585 -11.667978
RightArm -136.133122 -71.640427 238.468738
RightForeArm -25.035327 0.000000 103.188634
RightHand 61.630476 -0.000000 4.316311
RightHandThumb1 -24.326973 -0.000000 -32.862282
LeftUpLeg -2.723362 6.283512 2.290693
LeftLeg -2.675441 -0.000000 0.000000
LeftFoot -8.225889 3.199540 -13.411845
LeftToeBase 10.961500 -0.000000 -0.000000
RightUpLeg -1.980137 -14.721952 -6.198563
RightLeg -0.860034 -0.000000 0.000000
RightFoot -5.408355 -2.571714 7.350520
RightToeBase 0.808612 -0.000000 -0.000000
1330
root 1.476700 32.947648 2.591426 10.812534 3.573861 0.764354
Spine -18.044341 8.050705 -2.375814
Head 15.464694 -15.021431 7.469412
LeftShoulder -16.764739 3.510347 31.204253
LeftArm 164.290464 -29.547828 -112.121177
LeftForeArm -26.792890 -0.000000 154.853450
LeftHand -5.207506 -0.000000 -2.182937
LeftHandThumb1 -26.253704 0.000000 33.147579
RightShoulder -7.716134 6.470376 -11.680932
RightArm -135.928658 -71.635171 238.300852
RightForeArm -24.980755 -0.000000 103.055147
RightHand 61.731279 0.000000 4.363191
RightHandThumb1 -24.326973 -0.000000 -32.862282
LeftUpLeg -2.781284 6.325035 2.291576
LeftLeg -2.597591 -0.000000 0.000000
LeftFoot -8.166412 3.121883 -13.418217
LeftToeBase 10.849159 -0.000000 -0.000000
RightUpLeg -2.015001 -14.698838 -6.185198
RightLeg -0.782971 -0.000000 0.000000
RightFoot -5.397746 -2.647432 7.356951
RightToeBase 0.804562 -0.000000 -0.000000
1331
root 1.473612 32.953399 2.567623 10.794045 3.642239 0.745787
Spine -17.828800 8.024888 -2.304407
Head 15.460042 -15.192395 7.166771
LeftShoulder -16.730557 3.434198 31.321423
LeftArm 164.179808 -29.598410 -112.043718
LeftForeArm -26.427138 -0.000000 154.916963
LeftHand -5.067489 0.000000 -1.961764
LeftHandThumb1 -26.253704 0.000000 33.147579
RightShoulder -7.642140 6.348188 -11.691648
RightArm -135.949517 -71.720890 238.327478
RightForeArm -24.877973 -0.000000 102.928786
RightHand 61.836664 -0.000000 4.706874
RightHandThumb1 -24.326973 -0.000000 -32.862282
LeftUpLeg -2.856016 6.314776 2.312306
LeftLeg -2.523029 -0.000000 0.000000
LeftFoot -8.141136 3.104109 -13.394862
LeftToeBase 10.824197 -0.000000 -0.000000
RightUpLeg -2.066752 -14.671531 -6.151301
RightLeg -0.699714 -0.000000 0.000000
RightFoot -5.407850 -2.719880 7.416018
RightToeBase 0.898461 -0.000000 -0.000000
1332
root 1.469939 32.959038 2.544950 10.763138 3.694299 0.735952
Spine -17.594863 8.029436 -2.254751
Head 15.445891 -15.415074 6.832600
LeftShoulder -16.690428 3.465841 31.371330
LeftArm 164.215055 -29.536141 -111.979507
LeftForeArm -26.193228 -0.000000 154.953129
LeftHand -5.123377 -0.000000 -1.840295
LeftHandThumb1 -26.253704 0.000000 33.147579
RightShoulder -7.596168 6.306133 -11.705910
RightArm -135.609464 -71.798364 237.964257
RightForeArm -24.574424 -0.000000 102.813857
RightHand 62.154215 -0.000000 6.060052
RightHandThumb1 -24.326973 -0.000000 -32.862282
LeftUpLeg -2.916045 6.334430 2.327112
LeftLeg -2.431962 -0.000000 0.000000
LeftFoot -8.094177 3.051317 -13.460576
LeftToeBase 10.731487 -0.000000 -0.000000
RightUpLeg -2.105846 -14.623339 -6.129084
RightLeg -0.618652 -0.000000 0.000000
RightFoot -5.409408 -2.827856 7.411361
RightToeBase 0.918359 -0.000000 -0.000000
1333
root 1.465005 32.963952 2.521800 10.727685 3.767543 0.737096
Spine -17.340183 7.996306 -2.242374
Head 15.414707 -15.743002 6.341649
LeftShoulder -16.677038 3.486770 31.447180
LeftArm 164.255699 -29.516921 -111.855380
LeftForeArm -25.878843 -0.000000 154.963866
LeftHand -5.274569 -0.000000 -1.604222
LeftHandThumb1 -26.253704 0.000000 33.147579
RightShoulder -7.572411 6.324805 -11.688155
RightArm -135.255129 -71.789945 237.580159
RightForeArm -24.407588 -0.000000 102.718027
RightHand 62.398310 -0.000000 6.774998
RightHandThumb1 -24.326973 -0.000000 -32.862282
LeftUpLeg -2.979511 6.312968 2.338269
LeftLeg -2.342357 -0.000000 0.000000
LeftFoot -8.071772 3.031319 -13.430667
LeftToeBase 10.760236 -0.000000 -0.000000
RightUpLeg -2.138270 -14.622698 -6.111996
RightLeg -0.538322 -0.000000 0.000000
RightFoot -5.396508 -2.917475 7.386410
RightToeBase 0.851640 -0.000000 -0.000000
1334
root 1.460607 32.969049 2.497529 10.710399 3.820601 0.725555
Spine -17.120810 7.968146 -2.203952
Head 15.344039 -15.888336 6.070092
LeftShoulder -16.659189 3.524061 31.512806
LeftArm 164.258636 -29.481493 -111.715572
LeftForeArm -25.812274 0.000000 154.974508
LeftHand -5.358550 -0.000000 -1.721582
LeftHandThumb1 -26.253704 0.000000 33.147579
RightShoulder -7.539182 6.309742 -11.688619
RightArm -135.156512 -71.778876 237.461481
RightForeArm -24.330760 -0.000000 102.636372
RightHand 62.534993 -0.000000 7.196269
RightHandThumb1 -24.326973 -0.000000 -32.862282
LeftUpLeg -3.064306 6.302003 2.353953
LeftLeg -2.243842 -0.000000 0.000000
LeftFoot -8.081857 3.020785 -13.328241
LeftToeBase 10.883151 -0.000000 -0.000000
RightUpLeg -2.200444 -14.578904 -6.082901
RightLeg -0.442404 -0.000000 0.000000
RightFoot -5.412157 -3.019902 7.372906
RightToeBase 0.906018 -0.000000 -0.000000
